<svg width="343" height="412" viewBox="0 0 343 412" fill="none" xmlns="http://www.w3.org/2000/svg">
<rect width="343" height="412" rx="36" fill="#6F43FF"/>
<path d="M36.4062 41.2188V49.6562H34.4219V46.2969H32.2031V44.6875H34.4219V41.2188H36.4062ZM31.5469 49.9688C34.5781 49.9844 36.4375 50.9844 36.4531 52.7188C36.4375 54.4375 34.5781 55.4531 31.5469 55.4531C28.5156 55.4531 26.6562 54.4375 26.6562 52.7188C26.6562 50.9844 28.5156 49.9844 31.5469 49.9688ZM31.5469 51.5C29.6562 51.5 28.6406 51.8906 28.6406 52.7188C28.6406 53.5312 29.6562 53.9375 31.5469 53.9375C33.4375 53.9375 34.4688 53.5312 34.4688 52.7188C34.4688 51.8906 33.4375 51.5 31.5469 51.5ZM32.625 42.0781V43.6719H29.7969C29.8438 45.3281 30.8438 47 33.0625 47.7344L32.0781 49.2969C30.5078 48.7891 29.4297 47.7578 28.8125 46.4688C28.1797 47.9219 27.0469 49.0938 25.3594 49.6719L24.3281 48.0938C26.6641 47.3125 27.7109 45.4531 27.7656 43.6719H24.9062V42.0781H32.625ZM41.9719 42.2188C43.2453 42.2188 44.3078 42.9219 44.9563 44.1406H48.0813V41.2188H50.05V55.4688H48.0813V50.1406H45.1125C44.4719 51.5469 43.3469 52.3594 41.9719 52.3594C39.8156 52.3594 38.2688 50.4062 38.2844 47.2812C38.2688 44.1875 39.8156 42.2188 41.9719 42.2188ZM41.9719 44.0156C40.9094 44.0156 40.175 45.1719 40.1906 47.2812C40.175 49.4062 40.9094 50.5469 41.9719 50.5469C43.05 50.5469 43.7531 49.4062 43.7531 47.2812C43.7531 45.1719 43.05 44.0156 41.9719 44.0156ZM45.5188 45.75C45.6047 46.2188 45.6594 46.7344 45.6594 47.2812C45.6594 47.7266 45.6203 48.1484 45.5656 48.5469H48.0813V45.75H45.5188ZM56.9125 44.4375C56.8969 46.9844 57.9906 49.5625 60.2719 50.6562L59.0688 52.25C57.5453 51.5 56.5219 50.0938 55.9281 48.375C55.3109 50.2188 54.2094 51.7266 52.6 52.5156L51.3656 50.9062C53.7719 49.7969 54.9125 47.0781 54.9125 44.4375V42.3125H56.9125V44.4375ZM62.8969 41.2188V46.7031H64.9906V48.3906H62.8969V55.4375H60.8969V41.2188H62.8969ZM77.1969 41.2188V49.2031H75.2125V41.2188H77.1969ZM68.1188 42.0312V46.8281C70.275 46.8125 72.1031 46.6562 74.0094 46.25L74.2438 47.8594C72.025 48.3281 69.9 48.5 67.3531 48.5H66.1188V42.0312H68.1188ZM77.1969 49.7812V55.2656H67.6969V49.7812H77.1969ZM69.65 51.3438V53.7031H75.2438V51.3438H69.65ZM83.5438 42.1719C85.7938 42.1562 87.4813 43.625 87.4813 45.6562C87.4813 47.7031 85.7938 49.1562 83.5438 49.1562C81.2938 49.1562 79.5906 47.7031 79.5906 45.6562C79.5906 43.625 81.2938 42.1562 83.5438 42.1719ZM83.5438 43.8906C82.4188 43.8906 81.5594 44.5469 81.575 45.6562C81.5594 46.7812 82.4188 47.4219 83.5438 47.4219C84.6688 47.4219 85.5281 46.7812 85.5438 45.6562C85.5281 44.5469 84.6844 43.8906 83.5438 43.8906ZM90.8875 41.2188V55.4688H88.9031V41.2188H90.8875ZM78.9969 50.9375C81.5281 50.9531 85.0438 50.9062 88.0906 50.4844L88.2469 51.9219C85.0906 52.5312 81.7156 52.5625 79.2313 52.5625L78.9969 50.9375ZM101.284 44.3125C101.284 45.7812 102.316 47.2969 104.613 47.9062L103.706 49.4375C102.105 49.0078 100.98 48.1094 100.331 46.9531C99.7141 48.2734 98.5891 49.3125 96.925 49.8125L95.9563 48.2344C98.2688 47.5625 99.3 45.9375 99.3 44.3125V44.2656H96.4406V42.6875H99.3V41.1719H101.316V42.6875H104.159V44.2656H101.284V44.3125ZM108.019 41.2188V50.9219H106.034V46.625H103.753V45H106.034V41.2188H108.019ZM104.284 50.2969C104.269 51.8125 105.784 53.4219 108.847 53.8125L108.066 55.375C105.745 55.0469 104.089 54.0078 103.238 52.625C102.363 53.9922 100.706 55.0469 98.3938 55.375L97.6906 53.8125C100.644 53.3906 102.222 51.7188 102.238 50.2969V50.0625H104.284V50.2969ZM126.181 52.1406V53.7812H113.166V52.1406H118.65V49.2344H114.541V42.2656H124.728V49.2344H120.634V52.1406H126.181ZM116.509 43.8594V47.6719H122.759V43.8594H116.509ZM133.278 41.9375C136.278 41.9531 138.622 43.5625 138.637 46.0312C138.622 48.5156 136.278 50.1406 133.278 50.125C130.262 50.1406 127.934 48.5156 127.934 46.0312C127.934 43.5625 130.262 41.9531 133.278 41.9375ZM133.278 43.5625C131.309 43.5469 129.872 44.5 129.872 46.0312C129.872 47.5781 131.309 48.5 133.278 48.5C135.247 48.5 136.653 47.5781 136.669 46.0312C136.653 44.5 135.247 43.5469 133.278 43.5625ZM139.809 52.0938V53.7031H126.794V52.0938H139.809ZM152.375 41.2188V55.4375H150.359V41.2188H152.375ZM148.109 42.7031C148.109 47.0156 146.594 50.5938 141.516 53L140.469 51.4062C144.141 49.6719 145.758 47.4219 146.078 44.2656H141.234V42.7031H148.109ZM36.7188 65.2188V79.4375H34.8281V65.2188H36.7188ZM33.8125 65.4531V78.7812H31.9375V71.7031H30.0625V70.0938H31.9375V65.4531H33.8125ZM28.9219 69.0312C28.9219 71.3906 29.6562 73.7812 31.7344 74.9688L30.5625 76.4375C29.2969 75.6875 28.4609 74.4141 27.9844 72.8906C27.4922 74.5469 26.6328 75.9531 25.3281 76.75L24.125 75.2812C26.2188 74 27 71.4375 27 69.0312V68.2656H24.6719V66.6719H31.0781V68.2656H28.9219V69.0312ZM49.3313 65.2188V69.2969H51.2531V70.9531H49.3313V75.5781H47.3313V65.2188H49.3313ZM49.8469 77.5938V79.1875H40.1125V74.4844H42.0969V77.5938H49.8469ZM42.05 66.1406C44.2219 66.1406 45.925 67.6406 45.925 69.75C45.925 71.8281 44.2219 73.3594 42.05 73.3594C39.8625 73.3594 38.1438 71.8281 38.1438 69.75C38.1438 67.6406 39.8625 66.1406 42.05 66.1406ZM42.05 67.875C40.9719 67.8594 40.0969 68.5625 40.1125 69.75C40.0969 70.9062 40.9719 71.625 42.05 71.625C43.1438 71.625 43.9719 70.9062 43.9875 69.75C43.9719 68.5625 43.1438 67.8594 42.05 67.875ZM63.5844 65.2188V79.4688H61.5688V65.2188H63.5844ZM55.8656 66.2188C58.0063 66.2188 59.6 68.1875 59.6 71.2812C59.6 74.4062 58.0063 76.3594 55.8656 76.3594C53.6781 76.3594 52.0844 74.4062 52.1 71.2812C52.0844 68.1875 53.6781 66.2188 55.8656 66.2188ZM55.8656 68.0156C54.7563 68.0156 54.0219 69.1719 54.0219 71.2812C54.0219 73.4062 54.7563 74.5469 55.8656 74.5469C56.9438 74.5469 57.6781 73.4062 57.6781 71.2812C57.6781 69.1719 56.9438 68.0156 55.8656 68.0156ZM80.3875 71.5781V73.1562H76.2625V76.1875H81.8094V77.8125H68.7938V76.1875H74.2781V73.1562H70.325V66.2188H80.2781V67.8125H72.325V71.5781H80.3875ZM87.6562 68.2812C87.6562 69.75 88.6875 71.2812 91 71.8906L90.0781 73.4688C88.4688 73.0312 87.3359 72.1016 86.7031 70.9219C86.0703 72.2188 84.9297 73.2266 83.2656 73.7031L82.3125 72.1406C84.625 71.5156 85.6719 69.875 85.6719 68.2812H82.8125V66.7031H85.6719V65.1719H87.6875V66.7031H90.5312V68.2812H87.6562ZM93.7031 65.2188V68.7188H95.625V70.3906H93.7031V73.9375H91.7031V65.2188H93.7031ZM93.7031 74.5156V79.4531H91.7031V76.1094H84.125V74.5156H93.7031ZM108.269 65.2344V73.9844H106.378V70.4844H105.269V73.8281H103.409V65.4219H105.269V68.875H106.378V65.2344H108.269ZM102.956 66.5781V68.1562H95.9719V66.5781H98.4875V65.2969H100.472V66.5781H102.956ZM99.4875 68.6094C101.3 68.6094 102.581 69.6094 102.597 71.0938C102.581 72.5469 101.3 73.5781 99.4875 73.5781C97.7063 73.5781 96.4094 72.5469 96.4094 71.0938C96.4094 69.6094 97.7063 68.6094 99.4875 68.6094ZM99.4875 70.0312C98.7063 70.0312 98.1906 70.3906 98.1906 71.0938C98.1906 71.7656 98.7063 72.1406 99.4875 72.1406C100.269 72.1406 100.784 71.7656 100.8 71.0938C100.784 70.3906 100.269 70.0312 99.4875 70.0312ZM101.503 74.7188C101.488 75.7578 101.948 76.8281 103.081 77.5312C104.206 76.7891 104.706 75.6641 104.722 74.7188V74.4219H106.706V74.7188C106.691 76.0469 107.488 77.2969 109.378 77.7812L108.456 79.2656C107.081 78.8516 106.175 78.0234 105.691 76.9688C105.222 78.0156 104.402 78.9375 103.113 79.4062C101.784 78.9453 100.948 78.0781 100.503 77.0312C99.9797 78.0312 99.0891 78.8438 97.7844 79.2656L96.8469 77.7812C98.6906 77.25 99.5188 75.9688 99.5188 74.7188V74.4219H101.503V74.7188ZM113.6 66.2188C115.522 66.2188 116.952 67.8047 117.241 70.3594H119.709V65.2188H121.678V79.4688H119.709V71.9531H117.256C117.045 74.6875 115.584 76.3594 113.6 76.3594C111.444 76.3594 109.897 74.4062 109.912 71.2812C109.897 68.1875 111.444 66.2188 113.6 66.2188ZM113.6 68.0156C112.537 68.0156 111.803 69.1719 111.819 71.2812C111.803 73.4062 112.537 74.5469 113.6 74.5469C114.678 74.5469 115.381 73.4062 115.381 71.2812C115.381 69.1719 114.678 68.0156 113.6 68.0156ZM136.322 76.1406V77.7812H123.306V76.1406H126.213V72.6562C125.111 72 124.447 70.9922 124.447 69.7344C124.447 67.4375 126.697 65.9062 129.791 65.9062C132.869 65.9062 135.134 67.4375 135.15 69.7344C135.142 70.9609 134.494 71.9609 133.431 72.625V76.1406H136.322ZM129.791 67.4844C127.759 67.4844 126.416 68.2969 126.416 69.7344C126.416 71.125 127.759 71.9844 129.791 71.9844C131.806 71.9844 133.166 71.125 133.181 69.7344C133.166 68.2969 131.806 67.4844 129.791 67.4844ZM128.181 76.1406H131.416V73.375C130.908 73.4766 130.361 73.5312 129.791 73.5312C129.22 73.5312 128.681 73.4844 128.181 73.375V76.1406ZM140.169 66.6875L139.966 74.6094H137.966L137.762 66.6875H140.169ZM138.981 78.1406C138.247 78.1406 137.653 77.5469 137.669 76.8281C137.653 76.1094 138.247 75.5312 138.981 75.5312C139.669 75.5312 140.278 76.1094 140.278 76.8281C140.278 77.5469 139.669 78.1406 138.981 78.1406Z" fill="white"/>
<rect x="4" y="116" width="335" height="292" rx="36" fill="#F5F5F5"/>
<path d="M33.5664 178.934C36.3105 178.934 38.4004 180.672 38.4102 183.074C38.4004 185.457 36.3105 187.186 33.5664 187.195C30.7832 187.186 28.6934 185.457 28.7031 183.074C28.6934 180.672 30.7832 178.934 33.5664 178.934ZM31.3789 190.203V188.055H43.5273V193.094H34.1719V193.992H43.957V196.18H31.4375V191.062H40.7148V190.203H31.3789ZM31.418 183.074C31.4082 184.275 32.3262 184.92 33.5664 184.93C34.7871 184.92 35.6855 184.275 35.6758 183.074C35.6855 181.873 34.7871 181.229 33.5664 181.219C32.3262 181.229 31.4082 181.873 31.418 183.074ZM40.7148 187.371V178.445H43.5273V187.371H40.7148ZM61.9016 188.23V190.477H55.0656V196.375H52.2727V190.477H45.5539V188.23H61.9016ZM46.2961 185.145C50.0363 184.715 51.7355 183.074 52.0578 181.512H47.0187V179.344H60.4562V181.512H55.427C55.7199 183.074 57.3996 184.715 61.1984 185.145L60.1633 187.352C56.9504 186.941 54.802 185.652 53.7277 183.914C52.6633 185.652 50.5344 186.941 47.3312 187.352L46.2961 185.145ZM67.7367 178.934C70.4809 178.934 72.5707 180.672 72.5805 183.074C72.5707 185.457 70.4809 187.186 67.7367 187.195C64.9535 187.186 62.8637 185.457 62.8734 183.074C62.8637 180.672 64.9535 178.934 67.7367 178.934ZM65.5492 190.203V188.055H77.6977V193.094H68.3422V193.992H78.1273V196.18H65.6078V191.062H74.8852V190.203H65.5492ZM65.5883 183.074C65.5785 184.275 66.4965 184.92 67.7367 184.93C68.9574 184.92 69.8559 184.275 69.8461 183.074C69.8559 181.873 68.9574 181.229 67.7367 181.219C66.4965 181.229 65.5785 181.873 65.5883 183.074ZM74.8852 187.371V178.445H77.6977V187.371H74.8852Z" fill="#6F43FF"/>
<path d="M95.0293 187.785V189.35H80.5273V187.785H86.8203V186.273H82.3027V180.895H93.2715V182.424H84.2539V184.727H93.3594V186.273H88.7363V187.785H95.0293ZM82.2148 193.164C82.2148 191.301 84.2979 190.255 87.752 190.264C91.1797 190.255 93.2451 191.301 93.2539 193.164C93.2451 195.01 91.1797 196.056 87.752 196.064C84.2979 196.056 82.2148 195.01 82.2148 193.164ZM84.2012 193.164C84.1924 194.087 85.4404 194.562 87.752 194.553C90.0283 194.562 91.2852 194.087 91.3027 193.164C91.2852 192.25 90.0283 191.758 87.752 191.758C85.4404 191.758 84.1924 192.25 84.2012 193.164ZM108.417 180.174V184.832H110.632V186.449H108.417V191.793H106.466V180.174H108.417ZM96.0598 185.236C96.051 182.89 97.9318 181.237 100.349 181.229C102.766 181.237 104.62 182.89 104.638 185.236C104.62 187.548 102.766 189.227 100.349 189.227C97.9318 189.227 96.051 187.548 96.0598 185.236ZM97.9758 185.236C97.967 186.607 99.0217 187.513 100.349 187.504C101.694 187.513 102.713 186.607 102.722 185.236C102.713 183.83 101.694 182.934 100.349 182.934C99.0217 182.934 97.967 183.83 97.9758 185.236ZM98.2395 195.748V190.58H100.191V194.166H109.05V195.748H98.2395Z" fill="#1C1C1C"/>
<path d="M118.621 194.5L124.402 183.152V183.055H117.645V180.359H127.859V183.074L122.059 194.5H118.621ZM130.57 193.016L128.831 198.66H126.546L127.484 193.016H130.57ZM138.006 194.695C134.334 194.695 132.088 192.068 132.088 187.43C132.088 182.791 134.334 180.164 138.006 180.164C141.678 180.164 143.934 182.811 143.924 187.43C143.934 192.078 141.678 194.695 138.006 194.695ZM135.506 187.43C135.496 190.564 136.502 191.98 138.006 191.98C139.51 191.98 140.516 190.564 140.506 187.43C140.506 184.344 139.51 182.869 138.006 182.859C136.512 182.869 135.516 184.344 135.506 187.43ZM151.439 194.695C147.767 194.695 145.521 192.068 145.521 187.43C145.521 182.791 147.767 180.164 151.439 180.164C155.111 180.164 157.367 182.811 157.357 187.43C157.367 192.078 155.111 194.695 151.439 194.695ZM148.939 187.43C148.929 190.564 149.935 191.98 151.439 191.98C152.943 191.98 153.949 190.564 153.939 187.43C153.939 184.344 152.943 182.869 151.439 182.859C149.945 182.869 148.949 184.344 148.939 187.43ZM164.872 194.695C161.2 194.695 158.954 192.068 158.954 187.43C158.954 182.791 161.2 180.164 164.872 180.164C168.544 180.164 170.8 182.811 170.79 187.43C170.8 192.078 168.544 194.695 164.872 194.695ZM162.372 187.43C162.362 190.564 163.368 191.98 164.872 191.98C166.376 191.98 167.382 190.564 167.372 187.43C167.372 184.344 166.376 182.869 164.872 182.859C163.378 182.869 162.382 184.344 162.372 187.43ZM187.27 178.465V191.98H184.438V190.691H181.098V188.797H184.438V178.465H187.27ZM171.898 186.297C175.17 186.268 179.584 186.219 183.344 185.75L183.5 187.742C182.152 187.977 180.756 188.143 179.379 188.26V191.609H176.898V193.836H187.641V196.082H174.086V190.691H176.547V188.426C175.004 188.494 173.529 188.504 172.211 188.504L171.898 186.297ZM173.188 182.273C173.188 180.369 175.043 179.031 177.699 179.031C180.307 179.031 182.191 180.369 182.191 182.273C182.191 184.207 180.307 185.457 177.699 185.457C175.053 185.457 173.188 184.207 173.188 182.273ZM175.844 182.273C175.844 183.064 176.596 183.445 177.699 183.445C178.764 183.445 179.516 183.064 179.535 182.273C179.516 181.482 178.764 181.082 177.699 181.082C176.596 181.082 175.844 181.482 175.844 182.273Z" fill="#6F43FF"/>
<path d="M196.752 180.42C200.373 180.429 202.474 181.387 202.482 183.145C202.474 184.92 200.373 185.878 196.752 185.887C193.14 185.878 191.021 184.92 191.021 183.145C191.021 181.387 193.14 180.429 196.752 180.42ZM189.527 188.295V186.73H204.012V188.295H189.527ZM191.232 190.809V189.367H202.201V193.252H193.166V194.43H202.641V195.924H191.25V191.863H200.285V190.809H191.232ZM193.078 183.145C193.069 184.023 194.335 184.428 196.752 184.428C199.204 184.428 200.461 184.023 200.461 183.145C200.461 182.327 199.204 181.861 196.752 181.861C194.335 181.861 193.069 182.327 193.078 183.145ZM223.475 192.531V194.131H208.955V192.531H215.213V189.068H210.555V181.404H221.805V189.068H217.147V192.531H223.475ZM212.471 187.539H219.871V182.969H212.471V187.539ZM231.537 181.07C234.885 181.07 237.469 182.854 237.461 185.553C237.469 188.286 234.885 190.07 231.537 190.07C228.206 190.07 225.639 188.286 225.648 185.553C225.639 182.854 228.206 181.07 231.537 181.07ZM224.312 194.061V192.461H238.832V194.061H224.312ZM227.529 185.553C227.52 187.354 229.225 188.462 231.537 188.471C233.857 188.462 235.545 187.354 235.545 185.553C235.545 183.795 233.857 182.635 231.537 182.652C229.225 182.635 227.52 183.795 227.529 185.553ZM247.825 181.51V182.775H251.024V180.191H252.975V191.758H251.024V187.75H247.825V189.121H240.354V181.51H247.825ZM242.305 187.592H245.891V183.057H242.305V187.592ZM242.499 195.748V190.686H244.485V194.166H253.327V195.748H242.499ZM247.825 186.186H251.024V184.375H247.825V186.186Z" fill="#1C1C1C"/>
<path d="M41.834 210.174V219.613H39.8828V215.729H37.1758V214.129H39.8828V210.174H41.834ZM28.4746 218.031C31.0322 217.152 32.377 215.017 32.377 212.916V212.793H29.0723V211.211H37.6504V212.793H34.3633V212.898C34.3633 214.832 35.6465 216.783 38.1074 217.609L37.123 219.156C35.3564 218.559 34.1084 217.346 33.4053 215.852C32.7109 217.539 31.3838 218.91 29.4941 219.578L28.4746 218.031ZM31.0586 223.041C31.041 221.134 33.1064 220.018 36.4551 220.018C39.8213 220.018 41.8779 221.134 41.8867 223.041C41.8779 224.948 39.8213 226.056 36.4551 226.064C33.1064 226.056 31.041 224.948 31.0586 223.041ZM32.9922 223.041C32.9834 224.025 34.249 224.562 36.4551 224.553C38.6787 224.562 39.9355 224.025 39.9355 223.041C39.9355 222.048 38.6787 221.512 36.4551 221.512C34.249 221.512 32.9834 222.048 32.9922 223.041ZM48.2258 211.334C49.6584 211.334 50.8449 212.134 51.5568 213.531H55.2746V210.174H57.2082V226.082H55.2746V220.07H51.6975C51.0031 221.652 49.7551 222.566 48.2258 222.566C45.8352 222.566 44.1389 220.396 44.1477 216.941C44.1389 213.514 45.8352 211.334 48.2258 211.334ZM46.0285 216.941C46.0197 219.385 46.9162 220.8 48.2258 220.809C49.5441 220.8 50.4318 219.385 50.4406 216.941C50.4318 214.516 49.5441 213.092 48.2258 213.092C46.9162 213.092 46.0197 214.516 46.0285 216.941ZM52.1105 215.131C52.2248 215.685 52.2863 216.291 52.2863 216.941C52.2863 217.486 52.2424 218.005 52.1545 218.488H55.2746V215.131H52.1105ZM64.9184 213.988C64.9008 216.827 66.3246 219.692 68.7855 220.879L67.5902 222.443C65.8676 221.573 64.6283 219.895 63.9516 217.873C63.2572 220.035 61.9564 221.828 60.1371 222.742L58.9418 221.178C61.4994 219.965 62.9584 216.924 62.9672 213.988V211.457H64.9184V213.988ZM69.7348 226.064V210.174H71.6859V216.396H74.1293V218.066H71.6859V226.064H69.7348ZM87.0426 210.174V216.379H89.398V218.014H87.0426V226.029H85.0914V210.174H87.0426ZM74.5094 221.688C78.3766 219.754 80.4684 217.064 80.8551 213.443H75.3707V211.826H82.8414C82.8326 216.493 80.899 220.598 75.6168 223.199L74.5094 221.688Z" fill="#1C1C1C"/>
<path d="M97.6211 224.5L103.402 213.152V213.055H96.6445V210.359H106.859V213.074L101.059 224.5H97.6211ZM109.57 223.016L107.831 228.66H105.546L106.484 223.016H109.57ZM117.006 224.695C113.334 224.695 111.088 222.068 111.088 217.43C111.088 212.791 113.334 210.164 117.006 210.164C120.678 210.164 122.934 212.811 122.924 217.43C122.934 222.078 120.678 224.695 117.006 224.695ZM114.506 217.43C114.496 220.564 115.502 221.98 117.006 221.98C118.51 221.98 119.516 220.564 119.506 217.43C119.506 214.344 118.51 212.869 117.006 212.859C115.512 212.869 114.516 214.344 114.506 217.43ZM130.439 224.695C126.767 224.695 124.521 222.068 124.521 217.43C124.521 212.791 126.767 210.164 130.439 210.164C134.111 210.164 136.367 212.811 136.357 217.43C136.367 222.078 134.111 224.695 130.439 224.695ZM127.939 217.43C127.929 220.564 128.935 221.98 130.439 221.98C131.943 221.98 132.949 220.564 132.939 217.43C132.939 214.344 131.943 212.869 130.439 212.859C128.945 212.869 127.949 214.344 127.939 217.43ZM143.872 224.695C140.2 224.695 137.954 222.068 137.954 217.43C137.954 212.791 140.2 210.164 143.872 210.164C147.544 210.164 149.8 212.811 149.79 217.43C149.8 222.078 147.544 224.695 143.872 224.695ZM141.372 217.43C141.362 220.564 142.368 221.98 143.872 221.98C145.376 221.98 146.382 220.564 146.372 217.43C146.372 214.344 145.376 212.869 143.872 212.859C142.378 212.869 141.382 214.344 141.372 217.43ZM166.27 208.465V221.98H163.438V220.691H160.098V218.797H163.438V208.465H166.27ZM150.898 216.297C154.17 216.268 158.584 216.219 162.344 215.75L162.5 217.742C161.152 217.977 159.756 218.143 158.379 218.26V221.609H155.898V223.836H166.641V226.082H153.086V220.691H155.547V218.426C154.004 218.494 152.529 218.504 151.211 218.504L150.898 216.297ZM152.188 212.273C152.188 210.369 154.043 209.031 156.699 209.031C159.307 209.031 161.191 210.369 161.191 212.273C161.191 214.207 159.307 215.457 156.699 215.457C154.053 215.457 152.188 214.207 152.188 212.273ZM154.844 212.273C154.844 213.064 155.596 213.445 156.699 213.445C157.764 213.445 158.516 213.064 158.535 212.273C158.516 211.482 157.764 211.082 156.699 211.082C155.596 211.082 154.844 211.482 154.844 212.273Z" fill="#6F43FF"/>
<path d="M175.752 210.42C179.373 210.429 181.474 211.387 181.482 213.145C181.474 214.92 179.373 215.878 175.752 215.887C172.14 215.878 170.021 214.92 170.021 213.145C170.021 211.387 172.14 210.429 175.752 210.42ZM168.527 218.295V216.73H183.012V218.295H168.527ZM170.232 220.809V219.367H181.201V223.252H172.166V224.43H181.641V225.924H170.25V221.863H179.285V220.809H170.232ZM172.078 213.145C172.069 214.023 173.335 214.428 175.752 214.428C178.204 214.428 179.461 214.023 179.461 213.145C179.461 212.327 178.204 211.861 175.752 211.861C173.335 211.861 172.069 212.327 172.078 213.145ZM195.989 211.615V213.215H190.698V220.615C193.185 220.598 194.934 220.492 196.903 220.123L197.114 221.705C194.881 222.145 192.956 222.232 189.995 222.232H188.729V211.615H195.989ZM195.145 217.363V215.764H199.346V210.174H201.297V226.082H199.346V217.363H195.145ZM211.064 212.705V214.27H203.277V212.705H206.23V210.631H208.164V212.705H211.064ZM203.734 218.805C203.716 216.643 205.184 215.104 207.197 215.113C209.218 215.104 210.66 216.643 210.66 218.805C210.66 221.011 209.218 222.549 207.197 222.549C205.184 222.549 203.716 221.011 203.734 218.805ZM205.457 218.805C205.448 220.088 206.169 220.888 207.197 220.879C208.216 220.888 208.937 220.088 208.937 218.805C208.937 217.557 208.216 216.73 207.197 216.73C206.169 216.73 205.448 217.557 205.457 218.805ZM211.732 225.344V210.508H213.56V216.713H215.107V210.174H216.97V226.064H215.107V218.295H213.56V225.344H211.732ZM224.804 212.863C224.804 214.138 226.139 215.342 228.53 215.729L227.757 217.223C225.902 216.889 224.557 216.062 223.828 214.964C223.107 216.159 221.727 217.056 219.759 217.434L218.968 215.922C221.464 215.5 222.8 214.234 222.8 212.863V212.793H219.583V211.246H228.038V212.793H224.804V212.863ZM218.598 218.471C221.534 218.471 225.524 218.436 228.97 217.961L229.093 219.402C227.651 219.657 226.157 219.824 224.698 219.921V225.572H222.729V220.026C221.332 220.079 220.013 220.088 218.845 220.088L218.598 218.471ZM226.72 222.496V221.002H230.095V210.191H232.081V226.047H230.095V222.496H226.72ZM248.545 222.531V224.131H234.025V222.531H237.383V218.515C236.117 217.785 235.353 216.643 235.361 215.236C235.353 212.705 237.831 211.035 241.25 211.035C244.687 211.035 247.183 212.705 247.174 215.236C247.183 216.625 246.436 217.741 245.205 218.471V222.531H248.545ZM237.277 215.236C237.269 216.862 238.877 217.899 241.25 217.891C243.614 217.899 245.258 216.862 245.258 215.236C245.258 213.584 243.614 212.573 241.25 212.582C238.877 212.573 237.269 213.584 237.277 215.236ZM239.316 222.531H243.219V219.218C242.612 219.35 241.953 219.42 241.25 219.42C240.564 219.42 239.914 219.35 239.316 219.227V222.531Z" fill="#1C1C1C"/>
<path d="M40.9727 240.174V246.203H43.416V247.803H40.9727V256.082H39.0215V240.174H40.9727ZM29.1777 252.197V241.686H36.6133V243.268H31.1289V250.562C33.5986 250.554 35.5586 250.431 37.7383 250.053L37.9668 251.705C35.4971 252.127 33.3613 252.197 30.4961 252.197H29.1777ZM62.475 252.531V254.131H47.9555V252.531H54.2133V249.068H49.5551V241.404H60.8051V249.068H56.1469V252.531H62.475ZM51.4711 247.539H58.8715V242.969H51.4711V247.539ZM70.5367 241.07C73.8854 241.07 76.4693 242.854 76.4605 245.553C76.4693 248.286 73.8854 250.07 70.5367 250.07C67.2057 250.07 64.6393 248.286 64.648 245.553C64.6393 242.854 67.2057 241.07 70.5367 241.07ZM63.3121 254.061V252.461H77.8316V254.061H63.3121ZM66.5289 245.553C66.5201 247.354 68.2252 248.462 70.5367 248.471C72.857 248.462 74.5445 247.354 74.5445 245.553C74.5445 243.795 72.857 242.635 70.5367 242.652C68.2252 242.635 66.5201 243.795 66.5289 245.553ZM86.825 241.51V242.775H90.0242V240.191H91.9754V251.758H90.0242V247.75H86.825V249.121H79.3543V241.51H86.825ZM81.3055 247.592H84.8914V243.057H81.3055V247.592ZM81.4988 255.748V250.686H83.4852V254.166H92.327V255.748H81.4988ZM86.825 246.186H90.0242V244.375H86.825V246.186Z" fill="#1C1C1C"/>
<path d="M107.5 240.359V254.5H104.16V243.484H104.082L100.898 245.438V242.547L104.395 240.359H107.5ZM110.21 252.117V249.52L116.07 240.359H120.269V249.5H121.988V252.117H120.269V254.5H117.085V252.117H110.21ZM113.53 249.5H117.144V243.895H117.027L113.53 249.383V249.5ZM126.885 253.016L125.147 258.66H122.862L123.799 253.016H126.885ZM134.322 254.695C130.65 254.695 128.404 252.068 128.404 247.43C128.404 242.791 130.65 240.164 134.322 240.164C137.994 240.164 140.25 242.811 140.24 247.43C140.25 252.078 137.994 254.695 134.322 254.695ZM131.822 247.43C131.812 250.564 132.818 251.98 134.322 251.98C135.826 251.98 136.832 250.564 136.822 247.43C136.822 244.344 135.826 242.869 134.322 242.859C132.828 242.869 131.832 244.344 131.822 247.43ZM147.755 254.695C144.083 254.695 141.837 252.068 141.837 247.43C141.837 242.791 144.083 240.164 147.755 240.164C151.427 240.164 153.682 242.811 153.673 247.43C153.682 252.078 151.427 254.695 147.755 254.695ZM145.255 247.43C145.245 250.564 146.251 251.98 147.755 251.98C149.259 251.98 150.264 250.564 150.255 247.43C150.255 244.344 149.259 242.869 147.755 242.859C146.261 242.869 145.264 244.344 145.255 247.43ZM161.188 254.695C157.516 254.695 155.27 252.068 155.27 247.43C155.27 242.791 157.516 240.164 161.188 240.164C164.859 240.164 167.115 242.811 167.105 247.43C167.115 252.078 164.859 254.695 161.188 254.695ZM158.688 247.43C158.678 250.564 159.684 251.98 161.188 251.98C162.691 251.98 163.697 250.564 163.688 247.43C163.688 244.344 162.691 242.869 161.188 242.859C159.693 242.869 158.697 244.344 158.688 247.43ZM183.585 238.465V251.98H180.753V250.691H177.413V248.797H180.753V238.465H183.585ZM168.214 246.297C171.486 246.268 175.9 246.219 179.659 245.75L179.816 247.742C178.468 247.977 177.071 248.143 175.695 248.26V251.609H173.214V253.836H183.956V256.082H170.402V250.691H172.863V248.426C171.32 248.494 169.845 248.504 168.527 248.504L168.214 246.297ZM169.503 242.273C169.503 240.369 171.359 239.031 174.015 239.031C176.622 239.031 178.507 240.369 178.507 242.273C178.507 244.207 176.622 245.457 174.015 245.457C171.368 245.457 169.503 244.207 169.503 242.273ZM172.159 242.273C172.159 243.064 172.911 243.445 174.015 243.445C175.079 243.445 175.831 243.064 175.851 242.273C175.831 241.482 175.079 241.082 174.015 241.082C172.911 241.082 172.159 241.482 172.159 242.273Z" fill="#6F43FF"/>
<path d="M199.746 240.174V256.082H197.777V240.174H199.746ZM187.037 246.941C187.028 243.514 188.777 241.334 191.186 241.334C193.567 241.334 195.325 243.514 195.334 246.941C195.325 250.396 193.567 252.566 191.186 252.566C188.777 252.566 187.028 250.396 187.037 246.941ZM188.918 246.941C188.918 249.385 189.841 250.8 191.186 250.809C192.521 250.8 193.436 249.385 193.436 246.941C193.436 244.516 192.521 243.092 191.186 243.092C189.841 243.092 188.918 244.516 188.918 246.941Z" fill="#1C1C1C"/>
<path d="M42.168 270.174V286.064H40.2871V278.031H38.5293V285.256H36.7012V270.473H38.5293V276.432H40.2871V270.174H42.168ZM29.2129 282.109V272.002H31.1816V280.387C32.5527 280.36 34.0469 280.237 35.7168 279.912L35.9102 281.617C33.7656 281.995 31.9463 282.109 30.2676 282.109H29.2129ZM62.4398 278.436V279.982H47.9203V278.436H54.1957V277.258H49.7836V270.596H60.6996V272.107H51.7348V273.197H60.3129V274.639H51.7348V275.764H60.8227V277.258H56.1469V278.436H62.4398ZM49.643 283.445C49.643 281.784 51.6381 280.853 55.1801 280.861C58.6693 280.853 60.6732 281.784 60.682 283.445C60.6732 285.15 58.6693 286.047 55.1801 286.047C51.6381 286.047 49.643 285.15 49.643 283.445ZM51.5941 283.445C51.5941 284.219 52.7895 284.588 55.1801 284.588C57.5268 284.588 58.7133 284.219 58.7309 283.445C58.7133 282.689 57.5268 282.32 55.1801 282.32C52.7895 282.32 51.5941 282.689 51.5941 283.445ZM69.0074 273.039C69.0074 274.981 70.2643 276.81 72.7516 277.574L71.8199 279.104C70.0357 278.541 68.7701 277.407 68.0758 275.975C67.3727 277.645 66.0367 278.972 64.1207 279.613L63.1363 278.066C65.6939 277.231 67.0387 275.166 67.0387 273.057V272.863H63.6813V271.281H72.3121V272.863H69.0074V273.039ZM65.2984 283.006C65.2984 281.107 67.3551 280 70.6773 280C73.9732 280 75.9947 281.107 76.0035 283.006C75.9947 284.922 73.9732 286.047 70.6773 286.047C67.3551 286.047 65.2984 284.922 65.2984 283.006ZM67.2496 283.006C67.2496 283.99 68.4977 284.509 70.6773 284.518C72.8482 284.509 74.0699 283.99 74.0699 283.006C74.0699 282.039 72.8482 281.529 70.6773 281.529C68.4977 281.529 67.2496 282.039 67.2496 283.006ZM73.8941 279.648V270.174H75.8453V273.988H78.0602V275.588H75.8453V279.648H73.8941ZM85.8934 271.07C89.242 271.07 91.826 272.854 91.8172 275.553C91.826 278.286 89.242 280.07 85.8934 280.07C82.5623 280.07 79.9959 278.286 80.0047 275.553C79.9959 272.854 82.5623 271.07 85.8934 271.07ZM78.6688 284.061V282.461H93.1883V284.061H78.6688ZM81.8855 275.553C81.8768 277.354 83.5818 278.462 85.8934 278.471C88.2137 278.462 89.9012 277.354 89.9012 275.553C89.9012 273.795 88.2137 272.635 85.8934 272.652C83.5818 272.635 81.8768 273.795 81.8855 275.553ZM108.545 282.602V284.219H94.0254V282.602H100.283V280.018H95.748V274.814H104.889V272.846H95.7129V271.264H106.822V276.361H97.6992V278.418H107.191V280.018H102.217V282.602H108.545ZM127.955 276.537V278.084H113.454V276.537H127.955ZM115.159 280.65V279.174H126.127V283.164H117.092V284.377H126.567V285.906H115.176V281.758H124.211V280.65H115.159ZM115.299 275.518V270.578H126.092V272.143H117.25V273.971H126.233V275.518H115.299ZM133.152 271.334C135.296 271.334 136.887 273.127 137.169 276.027H140.201V270.174H142.134V286.082H140.201V277.609H137.186C136.975 280.677 135.358 282.566 133.152 282.566C130.761 282.566 129.065 280.396 129.074 276.941C129.065 273.514 130.761 271.334 133.152 271.334ZM130.955 276.941C130.946 279.385 131.842 280.8 133.152 280.809C134.47 280.8 135.358 279.385 135.367 276.941C135.358 274.516 134.47 273.092 133.152 273.092C131.842 273.092 130.946 274.516 130.955 276.941ZM148.913 271.158C151.356 271.158 153.22 272.731 153.237 274.99C153.22 276.933 151.848 278.365 149.915 278.726V281.072C151.242 281.002 152.56 280.905 153.8 280.738L153.94 282.197C150.609 282.795 146.979 282.812 144.255 282.777L143.973 281.178C145.169 281.178 146.54 281.169 147.964 281.134V278.743C145.969 278.392 144.589 276.95 144.606 274.99C144.589 272.731 146.417 271.158 148.913 271.158ZM146.505 274.99C146.496 276.317 147.524 277.17 148.913 277.152C150.275 277.17 151.295 276.317 151.304 274.99C151.295 273.654 150.275 272.828 148.913 272.811C147.524 272.828 146.496 273.654 146.505 274.99ZM154.714 286.064V270.174H156.665V276.52H158.968V278.172H156.665V286.064H154.714ZM174.043 282.531V284.131H159.523V282.531H162.881V278.515C161.615 277.785 160.851 276.643 160.859 275.236C160.851 272.705 163.329 271.035 166.748 271.035C170.185 271.035 172.681 272.705 172.672 275.236C172.681 276.625 171.934 277.741 170.703 278.471V282.531H174.043ZM162.775 275.236C162.767 276.862 164.375 277.899 166.748 277.891C169.112 277.899 170.756 276.862 170.756 275.236C170.756 273.584 169.112 272.573 166.748 272.582C164.375 272.573 162.767 273.584 162.775 275.236ZM164.814 282.531H168.717V279.218C168.11 279.35 167.451 279.42 166.748 279.42C166.062 279.42 165.412 279.35 164.814 279.227V282.531Z" fill="#1C1C1C"/>
<rect x="8" y="340" width="161.5" height="64" rx="32" fill="#F5F5F5"/>
<path d="M58.3125 369.281C58.3047 371.461 59.6172 373.945 61.8438 374.984L60.875 376.359C59.2812 375.609 58.1016 374.094 57.4688 372.328C56.8281 374.266 55.5938 375.922 53.9688 376.703L52.9531 375.344C55.2031 374.273 56.5703 371.633 56.5781 369.281V368.094H53.5V366.656H61.2656V368.094H58.3125V369.281ZM62.5781 379.391V365.266H64.3125V370.766H66.4844V372.219H64.3125V379.391H62.5781ZM71.2844 368.969C71.2922 371.25 72.0734 373.625 73.9875 374.828L73.0344 376.156C71.7609 375.391 70.9328 374.078 70.4641 372.539C69.9563 374.234 69.05 375.672 67.7219 376.484L66.6438 375.188C68.6984 373.945 69.6047 371.453 69.6125 369.047V366.516H71.2844V368.969ZM72.4719 371.562V370.125H74.4875V365.516H76.1281V378.703H74.4875V371.562H72.4719ZM77.3938 379.391V365.266H79.0656V379.391H77.3938ZM92.2563 365.266V379.391H90.5063V365.266H92.2563ZM80.8031 368.844V367.453H84.1625V365.438H85.9281V367.453H89.2719V368.844H80.8031ZM81.475 373.078C81.475 371.125 82.9906 369.742 85.0688 369.75C87.1391 369.742 88.6625 371.125 88.6625 373.078C88.6625 375.023 87.1391 376.391 85.0688 376.391C82.9906 376.391 81.475 375.023 81.475 373.078ZM83.1313 373.078C83.1313 374.227 83.9359 374.961 85.0688 374.953C86.1938 374.961 86.9984 374.227 86.9906 373.078C86.9984 371.93 86.1938 371.172 85.0688 371.172C83.9359 371.172 83.1313 371.93 83.1313 373.078ZM110.638 376.266V377.688H97.7313V376.266H103.294V373.516H99.1531V366.203H100.888V368.516H107.434V366.203H109.169V373.516H105.013V376.266H110.638ZM100.888 372.109H107.434V369.906H100.888V372.109ZM123.156 365.266V379.391H121.406V365.266H123.156ZM111.453 375.5C115.156 373.742 116.859 371.352 117.172 368.141H112.172V366.766H118.938C118.938 370.969 117.305 374.539 112.359 376.891L111.453 375.5Z" fill="#1C1C1C"/>
<rect x="173.5" y="340" width="161.5" height="64" rx="32" fill="#6F43FF"/>
<path d="M237.72 365.266V379.391H236.064V365.266H237.72ZM225.314 375.375C227.353 374.133 228.252 371.586 228.252 369.125V368.188H225.798V366.781H232.205V368.188H229.923V369.125C229.923 371.508 230.775 373.898 232.798 375.062L231.767 376.344C230.462 375.57 229.595 374.227 229.103 372.617C228.603 374.359 227.705 375.844 226.377 376.672L225.314 375.375ZM231.173 371.594V370.188H233.205V365.531H234.845V378.703H233.205V371.594H231.173ZM250.333 365.266V369.406H252.302V370.844H250.333V375.594H248.598V365.266H250.333ZM239.348 369.766C239.341 367.68 241.012 366.211 243.161 366.203C245.309 366.211 246.958 367.68 246.973 369.766C246.958 371.82 245.309 373.312 243.161 373.312C241.012 373.312 239.341 371.82 239.348 369.766ZM241.052 369.766C241.044 370.984 241.981 371.789 243.161 371.781C244.356 371.789 245.262 370.984 245.27 369.766C245.262 368.516 244.356 367.719 243.161 367.719C241.981 367.719 241.044 368.516 241.052 369.766ZM241.286 379.109V374.516H243.02V377.703H250.895V379.109H241.286ZM263.777 366.438C263.769 368.211 265.761 370.016 268.777 370.406L268.089 371.812C265.691 371.453 263.784 370.273 262.862 368.68C261.941 370.273 260.042 371.453 257.667 371.812L256.98 370.406C259.964 370.016 261.948 368.227 261.948 366.438V365.719H263.777V366.438ZM256.417 374.469V373.031H269.292V374.469H263.683V379.391H261.964V374.469H256.417ZM277.03 366.078V370.266H272.327V371.844C274.717 371.828 276.373 371.75 278.295 371.422L278.483 372.812C276.381 373.18 274.537 373.273 271.748 373.266H270.592V368.922H275.327V367.484H270.577V366.078H277.03ZM271.78 375.922V374.531H281.186V379.375H279.452V375.922H271.78ZM279.452 373.859V365.281H281.186V368.734H283.17V370.172H281.186V373.859H279.452Z" fill="white"/>
<path d="M314 29L300 43" stroke="#D9D9D9" stroke-width="2"/>
<path d="M314 43L300 29" stroke="#D9D9D9" stroke-width="2"/>
</svg>
